<svg width="804" height="122" viewBox="0 0 804 122" fill="none" xmlns="http://www.w3.org/2000/svg">
<path fill-rule="evenodd" clip-rule="evenodd" d="M423.299 3.36755V118.724H440.54V3.36755H423.299ZM420.597 3.36755V118.724C420.597 119.06 420.664 119.393 420.792 119.704C420.921 120.015 421.11 120.297 421.348 120.535C421.586 120.773 421.868 120.962 422.179 121.091C422.49 121.219 422.823 121.286 423.16 121.286H440.653C441.332 121.286 441.984 121.016 442.464 120.535C442.945 120.055 443.215 119.403 443.215 118.724V3.17844C443.215 2.84198 443.149 2.50882 443.02 2.19798C442.891 1.88713 442.702 1.60469 442.464 1.36678C442.226 1.12887 441.944 0.940154 441.633 0.811398C441.322 0.682642 440.989 0.616372 440.653 0.616372H422.961C422.282 0.616372 421.63 0.886303 421.15 1.36678C420.669 1.84726 420.399 2.49894 420.399 3.17844L420.597 3.36755ZM717.779 55.5319V39.7678C717.787 39.4343 717.729 39.1026 717.607 38.7921C717.485 38.4816 717.303 38.1986 717.07 37.9598C716.837 37.721 716.558 37.5313 716.251 37.4018C715.944 37.2723 715.614 37.2056 715.28 37.2057H698.552V17.0199C698.56 16.5485 698.432 16.0848 698.181 15.6852C697.931 15.2856 697.57 14.9671 697.143 14.7685C696.737 14.5168 696.269 14.3835 695.792 14.3835C695.315 14.3835 694.847 14.5168 694.441 14.7685L676.88 27.5833C676.561 27.8359 676.303 28.1574 676.125 28.5239C675.947 28.8904 675.854 29.2923 675.854 29.6996V37.2057H666.497C666.161 37.2057 665.828 37.272 665.517 37.4007C665.206 37.5295 664.923 37.7182 664.686 37.9561C664.448 38.194 664.259 38.4765 664.13 38.7873C664.001 39.0982 663.935 39.4313 663.935 39.7678V55.5274C663.935 56.2069 664.205 56.8586 664.686 57.3391C665.166 57.8195 665.818 58.0895 666.497 58.0895H676.047V86.2227C676.047 106.345 692.005 120.25 714.496 121.277C714.848 121.293 715.199 121.239 715.529 121.118C715.86 120.997 716.162 120.81 716.419 120.57C716.666 120.328 716.862 120.038 716.994 119.719C717.127 119.399 717.193 119.056 717.189 118.71V101.289C717.19 100.647 716.944 100.03 716.502 99.5649C716.061 99.0997 715.457 98.8222 714.816 98.7898C705.59 98.1504 698.539 93.9854 698.539 85.5878V58.2246H715.136C715.469 58.2247 715.8 58.158 716.107 58.0285C716.414 57.899 716.693 57.7092 716.926 57.4705C717.159 57.2317 717.341 56.9487 717.463 56.6382C717.585 56.3277 717.643 55.9959 717.635 55.6625L717.779 55.5319ZM745.336 79.3064C745.284 76.8053 745.732 74.319 746.651 71.9925C747.571 69.6661 748.945 67.5461 750.693 65.7563C752.441 63.9665 754.528 62.5428 756.832 61.5682C759.136 60.5935 761.611 60.0875 764.112 60.0797C768.173 60.0882 772.117 61.4403 775.329 63.925L745.98 84.8178C745.495 83.11 745.28 81.3372 745.34 79.5631L745.336 79.3064ZM781.862 92.5715C779.807 94.7074 777.322 96.3829 774.571 97.4875C771.82 98.592 768.866 99.1003 765.904 98.9789C763.73 99.024 761.563 98.6997 759.497 98.0199L802.949 66.8743C803.419 66.5496 803.76 66.07 803.912 65.5194C804.064 64.9687 804.018 64.3821 803.782 63.862C800.584 56.0087 795.111 49.2916 788.064 44.5749C781.018 39.8581 772.722 37.3576 764.243 37.3948C758.731 37.4036 753.276 38.5011 748.189 40.6242C743.103 42.7473 738.486 45.8542 734.604 49.7665C730.722 53.6789 727.651 58.3195 725.567 63.4221C723.483 68.5246 722.428 73.9885 722.462 79.5C722.715 90.8539 727.456 101.645 735.646 109.512C743.837 117.379 754.811 121.68 766.166 121.475C772.529 121.584 778.844 120.337 784.689 117.818C790.534 115.298 795.776 111.564 800.067 106.863C800.506 106.324 800.713 105.633 800.643 104.941C800.536 104.254 800.168 103.634 799.616 103.212L785.658 92.3824C785.123 92.0102 784.471 91.844 783.824 91.9143C783.176 91.9847 782.575 92.2868 782.132 92.7651L781.862 92.5715ZM658.757 79.3064C658.757 55.9777 643.448 37.2012 621.384 37.2012C613.634 36.7929 606.028 39.4116 600.172 44.5047V39.7678C600.172 39.0883 599.902 38.4366 599.421 37.9561C598.941 37.4757 598.289 37.2057 597.61 37.2057H579.986C579.306 37.2057 578.655 37.4757 578.174 37.9561C577.694 38.4366 577.424 39.0883 577.424 39.7678V118.724C577.424 119.403 577.694 120.055 578.174 120.535C578.655 121.016 579.306 121.286 579.986 121.286H597.547C598.226 121.286 598.878 121.016 599.358 120.535C599.839 120.055 600.109 119.403 600.109 118.724V79.3109C599.99 76.7545 600.406 74.2015 601.33 71.8151C602.255 69.4287 603.667 67.2614 605.476 65.4518C607.286 63.6422 609.453 62.2302 611.84 61.3059C614.226 60.3816 616.779 59.9655 619.335 60.0842C628.629 60.0842 636.126 66.4916 636.126 79.3109V118.724C636.126 119.403 636.396 120.055 636.877 120.535C637.357 121.016 638.009 121.286 638.688 121.286H656.055C656.392 121.286 656.725 121.219 657.036 121.091C657.347 120.962 657.629 120.773 657.867 120.535C658.105 120.297 658.294 120.015 658.422 119.704C658.551 119.393 658.617 119.06 658.617 118.724V79.3109L658.757 79.3064ZM360.828 79.3064C360.877 83.2672 362.149 87.1161 364.469 90.3267C366.789 93.5373 370.044 95.9531 373.789 97.2436C377.534 98.5342 381.586 98.6365 385.392 97.5367C389.197 96.4369 392.57 94.1886 395.049 91.0991C395.231 90.8137 395.476 90.5731 395.764 90.3953C396.053 90.2176 396.378 90.1072 396.715 90.0725C397.038 89.9962 397.375 89.9972 397.698 90.0755C398.022 90.1537 398.322 90.3069 398.574 90.5228V90.5228L412.61 101.352C412.867 101.558 413.082 101.812 413.24 102.101C413.399 102.39 413.499 102.707 413.535 103.035C413.57 103.363 413.541 103.694 413.448 104.01C413.354 104.327 413.2 104.621 412.992 104.878C408.026 111.301 401.303 116.145 393.638 118.825C385.974 121.504 377.697 121.903 369.81 119.973C361.924 118.043 354.766 113.867 349.205 107.952C343.643 102.036 339.917 94.6347 338.478 86.6442C337.038 78.6536 337.946 70.4169 341.093 62.9323C344.24 55.4477 349.49 49.0365 356.207 44.4754C362.925 39.9144 370.82 37.3994 378.938 37.2351C387.055 37.0709 395.046 39.2645 401.943 43.5501C402.253 43.732 402.519 43.9822 402.718 44.2817C402.918 44.5813 403.047 44.9224 403.095 45.2792C403.155 45.6276 403.14 45.9848 403.052 46.3271C402.963 46.6694 402.803 46.989 402.582 47.2649L391.879 61.2999C391.509 61.7898 390.976 62.1306 390.376 62.2604C389.776 62.3901 389.149 62.3002 388.61 62.0069C385.673 60.5276 382.406 59.8261 379.121 59.9695C375.836 60.1129 372.643 61.0964 369.847 62.826C367.05 64.5555 364.744 66.9734 363.148 69.8485C361.553 72.7236 360.721 75.9598 360.733 79.2479L360.828 79.3064ZM508.928 79.3064C508.876 76.8 509.326 74.3085 510.249 71.9779C511.173 69.6473 512.552 67.5245 514.307 65.7339C516.062 63.9432 518.156 62.5208 520.467 61.5499C522.779 60.579 525.26 60.0792 527.767 60.0797C531.828 60.0882 535.772 61.4403 538.984 63.925L509.504 84.5611C509.05 82.8474 508.835 81.0791 508.865 79.3064H508.928ZM545.648 92.5715C543.592 94.7074 541.107 96.3829 538.356 97.4875C535.606 98.592 532.652 99.1003 529.69 98.9789C527.515 99.024 525.349 98.6997 523.283 98.0199L566.667 66.8743C567.139 66.5512 567.486 66.0758 567.65 65.5275C567.814 64.9793 567.785 64.3913 567.567 63.862C564.37 56.0087 558.896 49.2916 551.85 44.5749C544.804 39.8581 536.508 37.3576 528.029 37.3948C522.517 37.403 517.061 38.5001 511.974 40.6229C506.887 42.7457 502.27 45.8525 498.387 49.7649C494.504 53.6773 491.433 58.3182 489.349 63.421C487.265 68.5239 486.209 73.9882 486.243 79.5C486.496 90.8539 491.237 101.645 499.427 109.512C507.618 117.379 518.592 121.68 529.947 121.475C536.311 121.584 542.625 120.337 548.47 117.818C554.315 115.298 559.557 111.564 563.848 106.863C564.261 106.315 564.445 105.628 564.361 104.946C564.277 104.265 563.931 103.643 563.398 103.212L549.106 92.1888C548.571 91.8166 547.919 91.6504 547.272 91.7207C546.624 91.791 546.023 92.0932 545.58 92.5715H545.648ZM464.553 0.548831C467.189 0.550612 469.765 1.33381 471.956 2.7994C474.146 4.265 475.853 6.34719 476.86 8.78275C477.868 11.2183 478.131 13.8979 477.615 16.4827C477.1 19.0675 475.83 21.4415 473.966 23.3046C472.101 25.1676 469.726 26.4361 467.141 26.9497C464.556 27.4632 461.877 27.1987 459.442 26.1897C457.007 25.1807 454.926 23.4724 453.462 21.2808C451.998 19.0891 451.216 16.5126 451.216 13.877C451.216 12.1259 451.561 10.3921 452.232 8.77443C452.902 7.1568 453.884 5.68712 455.123 4.44937C456.362 3.21162 457.832 2.23006 459.45 1.56079C461.068 0.891517 462.802 0.547648 464.553 0.548831V0.548831ZM473.334 37.1427H455.773C455.436 37.1427 455.103 37.209 454.792 37.3377C454.482 37.4665 454.199 37.6552 453.961 37.8931C453.723 38.131 453.535 38.4134 453.406 38.7243C453.277 39.0351 453.211 39.3683 453.211 39.7047V118.724C453.211 119.403 453.481 120.055 453.961 120.535C454.442 121.016 455.093 121.286 455.773 121.286H473.334C474.013 121.286 474.665 121.016 475.145 120.535C475.626 120.055 475.896 119.403 475.896 118.724V39.7678C475.896 39.0883 475.626 38.4366 475.145 37.9561C474.665 37.4757 474.013 37.2057 473.334 37.2057V37.1427ZM714.87 55.2798V39.8984H698.53C698.17 39.9056 697.813 39.841 697.479 39.7084C697.145 39.5759 696.841 39.378 696.584 39.1264C696.328 38.8748 696.124 38.5746 695.985 38.2432C695.846 37.9119 695.774 37.5561 695.774 37.1967V17.3396L678.605 30.1544V37.2057C678.591 37.9272 678.294 38.6143 677.779 39.1194C677.264 39.6246 676.571 39.9075 675.849 39.9074H666.493V55.3518H675.903C676.634 55.3518 677.335 55.6421 677.852 56.1589C678.369 56.6757 678.659 57.3766 678.659 58.1075V86.2407C678.585 90.4771 679.416 94.6806 681.095 98.5706C682.775 102.461 685.265 105.948 688.399 108.799C695.69 114.999 704.913 118.466 714.483 118.606V101.496C709.652 101.355 704.98 99.7448 701.087 96.8807V96.8807C699.433 95.5417 698.109 93.8393 697.22 91.9057C696.33 89.9721 695.899 87.8594 695.959 85.7318V58.2246C695.959 57.4937 696.249 56.7928 696.766 56.276C697.283 55.7592 697.983 55.4689 698.714 55.4689L714.87 55.2798ZM742.364 79.2479C742.349 73.3747 744.652 67.7326 748.771 63.5468C750.768 61.4935 753.161 59.867 755.805 58.7656C758.449 57.6642 761.289 57.111 764.153 57.1394C766.509 57.1154 768.852 57.5056 771.074 58.2921C773.185 59.0653 775.171 60.1456 776.968 61.4981C777.254 61.7082 777.497 61.9729 777.681 62.2769C777.865 62.5809 777.987 62.9183 778.041 63.2696C778.094 63.621 778.078 63.9794 777.993 64.3245C777.907 64.6695 777.755 64.9944 777.544 65.2804C777.364 65.5245 777.149 65.74 776.905 65.9198V65.9198L747.556 86.8125C746.966 87.2182 746.241 87.3783 745.535 87.259C744.829 87.1396 744.197 86.7502 743.773 86.1731C743.583 85.9291 743.451 85.6438 743.391 85.3401V85.3401C743.064 84.3882 742.87 83.3957 742.814 82.3908C742.751 81.3667 742.751 80.3396 742.814 79.3154L742.364 79.2479ZM783.762 94.3726C781.613 96.6911 778.958 98.4831 776.004 99.6093C772.755 100.858 769.295 101.47 765.814 101.41C764.555 101.506 763.291 101.506 762.032 101.41C760.717 101.278 759.424 100.975 758.187 100.51C757.725 100.331 757.319 100.031 757.013 99.6416C756.707 99.2523 756.511 98.7879 756.445 98.2968C756.38 97.8058 756.448 97.3062 756.642 96.8504C756.836 96.3945 757.148 95.9991 757.547 95.7054V95.7054L801.062 64.6365C798.08 57.3381 792.993 51.092 786.45 46.693C779.819 42.2998 772.04 39.9598 764.085 39.9659C758.947 39.9661 753.86 40.9859 749.119 42.9661C744.378 44.9463 740.077 47.8476 736.465 51.502C729.11 58.9144 724.985 68.9358 724.992 79.3785C725.02 84.5622 726.096 89.6867 728.155 94.444C730.214 99.2013 733.214 103.493 736.974 107.061C744.769 114.517 755.154 118.653 765.94 118.597C772.202 118.593 778.396 117.306 784.141 114.815C789.341 112.692 793.956 109.352 797.599 105.076L783.884 94.4357L783.762 94.3726ZM655.592 79.2479C655.812 68.8924 652.259 58.8102 645.595 50.8806C642.585 47.4839 638.898 44.7543 634.77 42.8668C630.642 40.9794 626.166 39.976 621.627 39.9209C617.647 39.9353 613.695 40.5843 609.92 41.8435C607.082 42.6489 604.514 44.2044 602.486 46.3463C601.972 46.8474 601.282 47.1279 600.563 47.1279C599.845 47.1279 599.155 46.8474 598.641 46.3463C598.338 46.0981 598.094 45.7854 597.927 45.4309C597.76 45.0765 597.675 44.6893 597.677 44.2975V44.2975V39.8984H580.184V118.593H597.357V79.3109C597.296 76.366 597.832 73.4391 598.933 70.7072C600.034 67.9752 601.678 65.4949 603.765 63.4162C605.87 61.3481 608.364 59.7172 611.103 58.6175C613.842 57.5178 616.771 56.9711 619.723 57.0088C622.438 56.9629 625.131 57.5129 627.611 58.6199C630.091 59.7269 632.298 61.3641 634.077 63.4162V63.4162C637.535 67.9233 639.304 73.4998 639.075 79.1758V118.458H656.091V79.2839L655.592 79.2479ZM364.196 94.9445C360.246 90.6699 358.052 85.0636 358.052 79.2434C358.052 73.4232 360.246 67.8169 364.196 63.5423C366.225 61.4967 368.641 59.8764 371.304 58.7762C373.967 57.676 376.822 57.118 379.703 57.1349C381.473 57.1502 383.236 57.3646 384.958 57.7743V57.7743C386.641 58.2006 388.274 58.8044 389.83 59.5754L400.403 45.86C397.351 43.918 394.023 42.4485 390.533 41.5013C387.018 40.4614 383.369 39.9425 379.703 39.9614C373.785 39.9621 367.942 41.2981 362.611 43.8698C357.28 46.4416 352.598 50.1829 348.913 54.8151C345.228 59.4473 342.636 64.8511 341.329 70.624C340.023 76.3969 340.035 82.3903 341.366 88.1577C342.697 93.9251 345.311 99.318 349.015 103.935C352.719 108.552 357.417 112.273 362.759 114.823C368.1 117.372 373.949 118.684 379.867 118.66C385.786 118.636 391.624 117.277 396.945 114.685V114.685C402.393 111.94 407.13 107.969 410.786 103.085L397.327 92.7651C395.431 95.4591 392.909 97.6531 389.979 99.159V99.159C385.822 101.298 381.09 102.047 376.476 101.298C371.862 100.548 367.61 98.3387 364.345 94.994L364.196 94.9445ZM506.271 79.3064C506.253 73.4263 508.557 67.7769 512.683 63.5873C514.68 61.5341 517.073 59.9075 519.717 58.8061C522.361 57.7048 525.201 57.1515 528.065 57.1799C530.286 57.1589 532.495 57.5059 534.603 58.2065C536.714 58.9797 538.7 60.06 540.497 61.4125C540.783 61.6227 541.026 61.8874 541.21 62.1914C541.394 62.4954 541.516 62.8327 541.57 63.1841C541.623 63.5354 541.607 63.8939 541.522 64.2389C541.437 64.584 541.284 64.9088 541.073 65.1948C540.893 65.4389 540.678 65.6545 540.434 65.8342L511.085 86.727C510.495 87.1326 509.77 87.2928 509.064 87.1734C508.358 87.0541 507.726 86.6646 507.302 86.0876C507.112 85.8436 506.981 85.5583 506.92 85.2546V85.2546C506.602 84.297 506.388 83.3083 506.28 82.3053V79.2299L506.271 79.3064ZM547.607 94.4312C545.497 96.7685 542.863 98.5711 539.92 99.6904C536.67 100.935 533.211 101.546 529.731 101.491C528.472 101.589 527.207 101.589 525.948 101.491C524.633 101.359 523.34 101.056 522.103 100.591C521.603 100.401 521.163 100.081 520.828 99.6645C520.493 99.2479 520.275 98.7496 520.197 98.2207C520.118 97.6919 520.182 97.1517 520.382 96.6558C520.582 96.1598 520.91 95.7261 521.333 95.3993V95.3993L564.654 64.6365C561.672 57.3381 556.585 51.092 550.043 46.693C543.411 42.2998 535.632 39.9598 527.677 39.9659C522.509 39.9286 517.385 40.9234 512.606 42.8919C507.827 44.8605 503.489 47.7632 499.846 51.4299C492.49 58.8424 488.366 68.8638 488.373 79.3064C488.401 84.5064 489.483 89.6466 491.554 94.4164C493.625 99.1862 496.642 103.486 500.422 107.057C508.217 114.513 518.602 118.649 529.388 118.593C535.65 118.589 541.844 117.302 547.589 114.811C552.789 112.687 557.404 109.347 561.047 105.071L547.269 94.4312H547.607ZM472.05 6.44293C470.572 4.95418 468.684 3.939 466.627 3.52662C464.569 3.11424 462.436 3.32331 460.498 4.12721C458.56 4.93111 456.905 6.29349 455.743 8.04093C454.582 9.78838 453.967 11.8419 453.976 13.94C453.957 15.6998 454.375 17.4368 455.193 18.9954C456.01 20.5541 457.201 21.8856 458.659 22.8709C460.117 23.8561 461.797 24.4642 463.548 24.6408C465.299 24.8173 467.067 24.5568 468.692 23.8825C470.318 23.2082 471.751 22.1412 472.863 20.7771C473.975 19.413 474.731 17.7944 475.064 16.0662C475.397 14.3381 475.295 12.5544 474.77 10.8749C474.244 9.19545 473.309 7.67265 472.05 6.44293V6.44293ZM473.14 39.8939H455.967V118.593H473.14V39.8939Z" fill="white"/>
<path fill-rule="evenodd" clip-rule="evenodd" d="M287.613 98.7898C285.104 98.799 282.618 98.305 280.303 97.3371C277.987 96.3693 275.89 94.9471 274.133 93.1547C272.377 91.3623 270.998 89.2361 270.077 86.9016C269.157 84.5671 268.713 82.0718 268.774 79.5631C268.722 77.0567 269.171 74.5651 270.095 72.2345C271.019 69.9039 272.398 67.7811 274.153 65.9905C275.907 64.1999 278.002 62.7774 280.313 61.8065C282.624 60.8356 285.106 60.3358 287.613 60.3363C290.097 60.3333 292.556 60.8355 294.841 61.8123C297.125 62.789 299.187 64.2201 300.901 66.0183C302.615 67.8166 303.945 69.9447 304.812 72.2731C305.678 74.6015 306.061 77.0818 305.939 79.5631C306.071 82.0466 305.693 84.5307 304.83 86.8632C303.968 89.1957 302.637 91.3274 300.922 93.1276C299.206 94.9278 297.14 96.3586 294.852 97.3322C292.563 98.3059 290.1 98.8019 287.613 98.7898V98.7898ZM135.605 37.2688H132.381C129.059 37.1948 125.757 37.805 122.681 39.0614C119.605 40.3179 116.821 42.1937 114.5 44.5722V41.1771C114.519 40.6982 114.402 40.2238 114.164 39.8078C113.926 39.3919 113.576 39.051 113.154 38.824C112.732 38.597 112.254 38.4929 111.776 38.5237C111.298 38.5544 110.838 38.7187 110.448 38.9978L92.8872 51.8126C92.5479 52.0509 92.2715 52.3679 92.0817 52.7366C91.8919 53.1052 91.7944 53.5143 91.7976 53.9289V118.724C91.7976 119.403 92.0675 120.055 92.548 120.535C93.0285 121.016 93.6801 121.286 94.3596 121.286H111.92C112.6 121.286 113.252 121.016 113.732 120.535C114.212 120.055 114.482 119.403 114.482 118.724V79.3109C114.482 66.4961 121.979 60.0842 130.76 60.0842C132.133 60.09 133.504 60.1969 134.862 60.4039C135.234 60.4924 135.622 60.494 135.996 60.4087C136.369 60.3234 136.718 60.1534 137.015 59.9119C137.312 59.6704 137.55 59.3638 137.71 59.0158C137.87 58.6678 137.948 58.2877 137.937 57.9049V39.8308C137.939 39.1829 137.695 38.5583 137.255 38.0829C136.815 37.6075 136.21 37.3166 135.564 37.2688H135.605ZM42.2943 37.0751C36.7382 37.2442 31.3064 38.7616 26.4672 41.4968C26.0616 41.7468 25.593 41.8756 25.1166 41.8681C24.6403 41.8605 24.176 41.717 23.7785 41.4544C23.381 41.1917 23.0669 40.821 22.8731 40.3857C22.6793 39.9505 22.614 39.4689 22.6849 38.9978V3.17843C22.6859 2.70186 22.554 2.23444 22.304 1.82872C22.054 1.42299 21.6958 1.09504 21.2696 0.881721C20.8434 0.668404 20.3662 0.578179 19.8916 0.621188C19.417 0.664196 18.9637 0.838733 18.5828 1.12518L1.08967 13.9445C0.767989 14.1698 0.50242 14.4661 0.313479 14.8104C0.124538 15.1547 0.0172827 15.5379 0 15.9302L0 118.467C0 119.146 0.269931 119.798 0.750411 120.279C1.23089 120.759 1.88256 121.029 2.56206 121.029H20.1228C20.8023 121.029 21.454 120.759 21.9344 120.279C22.4149 119.798 22.6849 119.146 22.6849 118.467V113.469C25.2566 116.024 28.3213 118.029 31.6925 119.362C35.0636 120.695 38.6707 121.328 42.2943 121.223C53.0995 120.887 63.3304 116.28 70.7427 108.411C78.155 100.542 82.1434 90.0538 81.833 79.2479C82.1288 68.4269 78.1413 57.9266 70.7375 50.0295C63.3336 42.1323 53.1119 37.4769 42.2943 37.0751ZM40.0745 98.6638C37.5849 98.685 35.1175 98.1952 32.8248 97.2247C30.5321 96.2542 28.4629 94.8236 26.7451 93.0215C25.0274 91.2194 23.6977 89.0839 22.8382 86.7474C21.9787 84.4108 21.6078 81.9227 21.7483 79.437C21.6262 76.9557 22.0099 74.4755 22.8761 72.147C23.7422 69.8186 25.0728 67.6906 26.7868 65.8923C28.5009 64.094 30.5627 62.663 32.8469 61.6862C35.1312 60.7094 37.5902 60.2073 40.0745 60.2103C42.5814 60.2097 45.0633 60.7096 47.3746 61.6805C49.6859 62.6514 51.7802 64.0738 53.5348 65.8644C55.2894 67.6551 56.6689 69.7779 57.5926 72.1085C58.5163 74.4391 58.9655 76.9306 58.914 79.437C58.9829 81.948 58.5457 84.4472 57.6282 86.7856C56.7108 89.124 55.332 91.2537 53.5739 93.0479C51.8159 94.8421 49.7146 96.264 47.3954 97.2288C45.0761 98.1936 42.5863 98.6816 40.0745 98.6638V98.6638ZM159.316 0.548828C161.952 0.548828 164.529 1.33051 166.721 2.79502C168.913 4.25954 170.621 6.34111 171.63 8.77651C172.639 11.2119 172.903 13.8918 172.388 16.4772C171.874 19.0626 170.605 21.4374 168.741 23.3014C166.877 25.1654 164.502 26.4347 161.916 26.949C159.331 27.4633 156.651 27.1993 154.216 26.1906C151.78 25.1818 149.699 23.4735 148.234 21.2817C146.77 19.0899 145.988 16.513 145.988 13.877C145.988 10.3421 147.392 6.95206 149.892 4.45255C152.391 1.95304 155.781 0.548828 159.316 0.548828V0.548828ZM168.097 37.2057H150.536C150.199 37.2057 149.866 37.272 149.555 37.4007C149.245 37.5295 148.962 37.7182 148.724 37.9561C148.486 38.194 148.298 38.4765 148.169 38.7873C148.04 39.0982 147.974 39.4313 147.974 39.7678V118.724C147.974 119.403 148.244 120.055 148.724 120.535C149.205 121.016 149.856 121.286 150.536 121.286H168.097C168.776 121.286 169.428 121.016 169.908 120.535C170.389 120.055 170.659 119.403 170.659 118.724V39.7678C170.659 39.4313 170.592 39.0982 170.464 38.7873C170.335 38.4765 170.146 38.194 169.908 37.9561C169.67 37.7182 169.388 37.5295 169.077 37.4007C168.766 37.272 168.433 37.2057 168.097 37.2057ZM205.65 87.1277C210.778 87.9607 212.89 90.14 212.89 93.5351C212.917 94.3141 212.773 95.0896 212.468 95.8067C212.162 96.5238 211.703 97.1649 211.122 97.6848C210.541 98.2046 209.853 98.5904 209.107 98.8148C208.36 99.0392 207.573 99.0968 206.802 98.9835C204.153 99.0899 201.548 98.2752 199.431 96.6781C198.984 96.3553 198.446 96.1816 197.894 96.1816C197.342 96.1816 196.804 96.3553 196.356 96.6781L181.231 107.638C180.922 107.847 180.664 108.122 180.476 108.444C180.287 108.766 180.173 109.126 180.142 109.497C180.119 110.255 180.395 110.991 180.911 111.546C184.281 114.862 188.294 117.454 192.702 119.162C197.11 120.87 201.821 121.659 206.546 121.479C223.976 121.479 237.561 110.33 237.561 93.8593C237.561 77.3883 226.304 69.4409 211.476 67.5182C204.749 66.6852 202.889 65.0822 202.889 62.3896C202.895 61.7997 203.024 61.2174 203.268 60.6803C203.512 60.1431 203.865 59.6629 204.306 59.2706C204.747 58.8784 205.264 58.5826 205.826 58.4025C206.388 58.2223 206.981 58.1617 207.568 58.2246C209.743 58.26 211.844 59.0278 213.529 60.4039C213.959 60.7417 214.489 60.9253 215.036 60.9253C215.582 60.9253 216.112 60.7417 216.542 60.4039L229.357 51.3038C229.641 51.1053 229.88 50.8484 230.057 50.5502C230.234 50.252 230.345 49.9194 230.383 49.5748C230.447 49.2363 230.434 48.8879 230.345 48.5552C230.256 48.2225 230.094 47.9139 229.87 47.6521C227.199 44.2676 223.77 41.5586 219.859 39.7439C215.948 37.9293 211.665 37.0598 207.356 37.2057C195.374 37.2057 180.826 47.5215 180.826 61.6241C180.826 75.7267 191.209 85.079 205.884 87.2583L205.65 87.1277ZM307.61 121.286H325.171C325.85 121.286 326.502 121.016 326.982 120.535C327.463 120.055 327.733 119.403 327.733 118.724V39.7678C327.733 39.0883 327.463 38.4366 326.982 37.9561C326.502 37.4757 325.85 37.2057 325.171 37.2057H307.61C307.273 37.2057 306.94 37.272 306.629 37.4007C306.319 37.5295 306.036 37.7182 305.798 37.9561C305.56 38.194 305.372 38.4765 305.243 38.7873C305.114 39.0982 305.048 39.4313 305.048 39.7678V44.5092C299.569 39.8531 292.628 37.2683 285.438 37.2057C274.618 37.5855 264.385 42.222 256.964 50.1068C249.544 57.9916 245.537 68.4872 245.814 79.3109C245.504 90.1312 249.504 100.632 256.935 108.503C264.365 116.375 274.618 120.972 285.438 121.286C289.042 121.413 292.635 120.815 296.004 119.528C299.373 118.24 302.448 116.288 305.048 113.788V118.742C305.053 119.418 305.325 120.065 305.805 120.542C306.285 121.018 306.933 121.286 307.61 121.286Z" fill="white"/>
</svg>
