<svg width="39" height="31" viewBox="0 0 39 31" fill="none" xmlns="http://www.w3.org/2000/svg">
<path d="M35.0995 0.000318297H3.90048C3.39327 -0.00583429 2.88988 0.0898146 2.41945 0.281732C1.94901 0.473649 1.52086 0.758026 1.15976 1.11841C0.798653 1.4788 0.511768 1.90804 0.315694 2.38131C0.11962 2.85458 0.0182504 3.36248 0.0174481 3.87564L0 27.1244C0.00267946 27.6385 0.105909 28.147 0.303738 28.6205C0.501567 29.0941 0.790085 29.5234 1.15266 29.8836C1.51524 30.2438 1.9447 30.5279 2.41631 30.7195C2.88791 30.911 3.39232 31.0063 3.90048 30.9997H35.0995C35.6077 31.0063 36.1121 30.911 36.5837 30.7195C37.0553 30.5279 37.4848 30.2438 37.8473 29.8836C38.2099 29.5234 38.4984 29.0941 38.6963 28.6205C38.8941 28.147 38.9973 27.6385 39 27.1244V3.87564C38.9973 3.36153 38.8941 2.85304 38.6963 2.37948C38.4984 1.90592 38.2099 1.47665 37.8473 1.11641C37.4848 0.756169 37.0553 0.472087 36.5837 0.280534C36.1121 0.0889819 35.6077 -0.00625293 35.0995 0.000318297V0.000318297ZM35.0995 7.74936H3.90048V3.87564H35.0995V7.74936Z" fill="#F56E28"/>
<path fill-rule="evenodd" clip-rule="evenodd" d="M23.0421 15.0242C23.0715 15.0071 23.0935 14.9806 23.104 14.9493C23.1145 14.9181 23.1128 14.8843 23.0993 14.8542C22.6727 13.8736 22.1019 12.9556 21.4042 12.1279C21.3554 12.072 21.2897 12.0317 21.2161 12.0125C21.1425 11.9934 21.0644 11.9962 20.9926 12.0207C20.9207 12.0453 20.8585 12.0902 20.8144 12.1496C20.7703 12.2089 20.7464 12.2797 20.746 12.3524C20.8378 13.7589 20.5557 15.1647 19.9257 16.4398C19.2958 17.715 18.3383 18.8182 17.1418 19.6475C17.1369 19.6518 17.1329 19.657 17.1301 19.6628C17.1273 19.6686 17.1257 19.6749 17.1255 19.6813C17.2444 21.1642 17.5453 22.6288 18.0221 24.0451C18.0262 24.052 18.0325 24.0575 18.0401 24.0608C18.0477 24.064 18.0562 24.0649 18.0643 24.0634C18.0725 24.0618 18.0799 24.0578 18.0855 24.0519C18.0912 24.0461 18.0947 24.0387 18.0957 24.0308C17.9791 22.2428 18.3784 20.4584 19.2503 18.8708C20.1221 17.2833 21.4334 15.9531 23.0421 15.0242V15.0242ZM23.7575 17.4481C22.3248 18.0908 21.098 19.0856 20.2035 20.33C19.3089 21.5744 18.7789 23.0235 18.668 24.5278H18.5699C18.3454 22.7514 18.6569 20.9509 19.468 19.337C20.2791 17.7231 21.5562 16.3626 23.1497 15.4147C23.1682 15.4041 23.189 15.3976 23.2105 15.3956C23.232 15.3935 23.2538 15.3961 23.2741 15.4031C23.2944 15.41 23.3129 15.4212 23.3282 15.4358C23.3434 15.4504 23.3551 15.468 23.3623 15.4874C23.5758 16.0791 23.7367 16.6867 23.8433 17.3041C23.8477 17.3336 23.8419 17.3636 23.827 17.3898C23.812 17.416 23.7886 17.4369 23.7602 17.4494L23.7575 17.4481ZM16.6717 19.959C16.6777 19.955 16.6847 19.9527 16.6919 19.9522C16.6991 19.9517 16.7064 19.953 16.7129 19.956C16.7194 19.9591 16.725 19.9637 16.729 19.9695C16.733 19.9752 16.7354 19.9819 16.7358 19.9888C16.8643 21.3655 17.1462 22.7252 17.5765 24.0451C17.5804 24.0527 17.5814 24.0614 17.5793 24.0696C17.5772 24.0778 17.5722 24.0851 17.5651 24.0901C17.558 24.0952 17.5493 24.0978 17.5404 24.0974C17.5316 24.097 17.5231 24.0936 17.5166 24.0879C16.2705 23.2848 14.8873 22.6943 13.4286 22.3427C13.3219 22.3442 13.2186 22.3071 13.1394 22.239C13.0601 22.1709 13.0109 22.0768 13.0016 21.9756C12.9923 21.8743 13.0236 21.7735 13.0891 21.6933C13.1547 21.6131 13.2497 21.5595 13.3551 21.5433C14.4989 21.0921 15.6069 20.5626 16.6704 19.959H16.6717ZM23.7247 20.3833C23.7478 20.376 23.7724 20.3744 23.7962 20.3785C23.8201 20.3826 23.8425 20.3923 23.8615 20.4067C23.8804 20.4212 23.8953 20.4399 23.9047 20.4611C23.9142 20.4824 23.9179 20.5056 23.9155 20.5286C23.856 21.0033 23.765 21.474 23.643 21.9378C23.6355 21.9625 23.6212 21.9848 23.6015 22.0024C23.5819 22.02 23.5576 22.0322 23.5313 22.0377C23.286 22.0885 23.0447 22.1552 22.8091 22.2376C22.0698 22.5001 21.4009 22.9157 20.8507 23.4542C20.3005 23.9928 19.8826 24.6409 19.6273 25.3518L19.4747 25.3272C19.6572 24.2186 20.1467 23.1764 20.8927 22.3079C21.6388 21.4394 22.6145 20.776 23.7193 20.3859L23.7247 20.3833ZM23.2424 22.5036C23.2674 22.4977 23.2936 22.4982 23.3183 22.5051C23.343 22.512 23.3654 22.525 23.3831 22.5428C23.4008 22.5606 23.4133 22.5826 23.4192 22.6065C23.4251 22.6303 23.4243 22.6553 23.4168 22.6787C22.8791 24.2468 21.9864 25.6833 20.8019 26.8869C20.7621 26.9279 20.7126 26.9593 20.6576 26.9785C20.6025 26.9977 20.5435 27.0042 20.4853 26.9973C20.4271 26.9905 20.3714 26.9706 20.3229 26.9392C20.2744 26.9078 20.2345 26.8658 20.2064 26.8168C20.0791 26.6019 19.9399 26.3936 19.7894 26.1927V26.1927C19.9401 25.3833 20.3105 24.6256 20.8639 23.9948C21.4173 23.364 22.1344 22.8821 22.944 22.597C23.0421 22.5633 23.1415 22.5308 23.2424 22.5036ZM23.936 18.0268C23.9781 18.41 23.9994 18.7951 24 19.1804C24 19.3919 24 19.6047 23.9809 19.8136C23.9803 19.8427 23.9701 19.8709 23.9518 19.8942C23.9335 19.9175 23.9079 19.9347 23.8787 19.9434C23.7806 19.9732 23.6784 20.0044 23.5803 20.0407C22.4659 20.4305 21.4731 21.0823 20.6943 21.9356C19.9155 22.7889 19.3759 23.8158 19.1258 24.921H19.0495C19.0911 23.4584 19.549 22.0341 20.3743 20.7999C21.1997 19.5658 22.3615 18.5683 23.7356 17.9139C23.7563 17.9039 23.7791 17.8988 23.8023 17.8991C23.8254 17.8994 23.8481 17.905 23.8685 17.9154C23.8889 17.9259 23.9063 17.9409 23.9192 17.9592C23.9321 17.9774 23.9402 17.9984 23.9428 18.0203L23.936 18.0268Z" fill="white"/>
</svg>
