<svg width="40" height="40" viewBox="0 0 40 40" fill="none" xmlns="http://www.w3.org/2000/svg">
<path d="M36.0002 0H3.99983C2.94212 0.00403111 1.92918 0.427381 1.18316 1.1772C0.437142 1.92703 0.0189522 2.94211 0.0203039 3.99983L0 40L7.99966 32.0003H36.0002C37.06 31.9972 38.0756 31.5748 38.825 30.8254C39.5745 30.0759 39.9969 29.0604 40 28.0005V3.99983C39.9969 2.93997 39.5745 1.92441 38.825 1.17497C38.0756 0.425537 37.06 0.00312448 36.0002 0ZM7.99966 14.0011H32.0003V18.0009H7.99966V14.0011ZM24.0007 24.0007H7.99966V20.0008H24.0007V24.0007ZM32.0003 12.0012H7.99966V7.99966H32.0003V12.0012Z" fill="#F56E28"/>
</svg>
