<svg width="33" height="22" viewBox="0 0 33 22" fill="none" xmlns="http://www.w3.org/2000/svg">
<path d="M5.50021 2.75015H30.2499V0H5.50021C4.77143 0.00195212 4.07307 0.292327 3.55775 0.807658C3.04242 1.32299 2.75205 2.02137 2.7501 2.75015V17.8742H0V21.9988H19.2495V17.8742H5.50021V2.75015ZM31.6256 5.50031H23.3753C23.0111 5.50161 22.6623 5.64683 22.4048 5.90431C22.1473 6.16179 22.0021 6.51064 22.0008 6.87477V20.6255C22.0021 20.9897 22.1473 21.3385 22.4048 21.596C22.6623 21.8535 23.0111 21.9987 23.3753 22H31.6256C31.9897 21.9987 32.3385 21.8535 32.596 21.596C32.8535 21.3385 32.9987 20.9897 33 20.6255V6.87477C32.9987 6.51064 32.8535 6.16179 32.596 5.90431C32.3385 5.64683 31.9897 5.50161 31.6256 5.50031ZM30.2499 17.8742H24.7497V8.25046H30.2499V17.8742Z" fill="#F56E28"/>
</svg>
