<svg width="32" height="26" viewBox="0 0 32 26" fill="none" xmlns="http://www.w3.org/2000/svg">
<path d="M15.9994 20.3134C14.1883 20.3111 12.4451 19.6128 11.1198 18.3588C9.79457 17.1048 8.98543 15.388 8.85488 13.553L3.60985 9.43612C2.90657 10.3124 2.29148 11.258 1.7738 12.2589C1.65923 12.4887 1.59952 12.7427 1.59952 13.0003C1.59952 13.2579 1.65923 13.5119 1.7738 13.7418C3.09637 16.4301 5.12512 18.6945 7.6357 20.2846C10.1463 21.8747 13.0409 22.7285 15.9994 22.7516C17.3146 22.7429 18.6233 22.5644 19.8942 22.2206L17.2988 20.1809C16.8705 20.2649 16.4356 20.3093 15.9994 20.3134ZM31.6941 23.2639L26.1663 18.9266C27.8453 17.4893 29.2261 15.7273 30.2285 13.7429C30.3431 13.5131 30.4028 13.2591 30.4028 13.0015C30.4028 12.7439 30.3431 12.4899 30.2285 12.2601C28.9058 9.57096 26.8766 7.30595 24.3653 5.7156C21.8541 4.12526 18.9587 3.27158 15.9994 3.24901C13.4252 3.252 10.8927 3.91013 8.63331 5.16329L2.2735 0.169526C2.10619 0.0382204 1.89451 -0.020447 1.68474 0.00635316C1.47497 0.0331533 1.28418 0.14324 1.1541 0.31254L0.168561 1.59497C0.104019 1.67923 0.0564596 1.77559 0.0286027 1.87853C0.00074575 1.98147 -0.00686235 2.08898 0.0062134 2.19492C0.0192891 2.30085 0.0527923 2.40312 0.104807 2.49589C0.156822 2.58866 0.226328 2.6701 0.309352 2.73557L29.7265 25.8288C29.8095 25.8943 29.9043 25.9427 30.0057 25.9709C30.107 25.9992 30.2128 26.007 30.3171 25.9937C30.4214 25.9804 30.5221 25.9464 30.6134 25.8935C30.7047 25.8407 30.7849 25.7701 30.8494 25.6858L31.8314 24.4022C31.896 24.3179 31.9435 24.2215 31.9714 24.1186C31.9993 24.0157 32.0069 23.9081 31.9938 23.8022C31.9807 23.6963 31.9472 23.594 31.8952 23.5012C31.8432 23.4085 31.7737 23.327 31.6906 23.2616L31.6941 23.2639ZM22.5035 16.0523L20.5416 14.5096C20.8252 13.6751 20.8772 12.7775 20.6921 11.9149C20.507 11.0524 20.0919 10.2582 19.4922 9.61928C18.8925 8.98035 18.1314 8.5213 17.292 8.29237C16.4527 8.06344 15.5676 8.07345 14.7335 8.32131C15.0336 8.7367 15.1953 9.23855 15.1951 9.75379C15.1875 9.92533 15.1616 10.0955 15.1178 10.2614L11.4422 7.36828C12.7207 6.28332 14.3335 5.68843 15.9994 5.68728C16.9447 5.68713 17.8808 5.87618 18.7541 6.24364C19.6274 6.6111 20.4209 7.14976 21.0893 7.82885C21.7576 8.50793 22.2876 9.31413 22.6491 10.2014C23.0105 11.0886 23.1964 12.0395 23.1959 12.9997C23.1897 14.0552 22.9532 15.0961 22.5035 16.0476V16.0523Z" fill="#F56E28"/>
</svg>
