<svg width="32" height="38" viewBox="0 0 32 38" fill="none" xmlns="http://www.w3.org/2000/svg">
<path d="M20.6745 13.5828H31.9982V35.9972C32.0101 36.2614 31.9638 36.525 31.8628 36.7688C31.7617 37.0126 31.6083 37.2303 31.4139 37.4062C31.2346 37.5963 31.0189 37.747 30.78 37.8491C30.5412 37.9512 30.2843 38.0025 30.0252 37.9999H1.97308C1.71422 38.0027 1.45756 37.9515 1.219 37.8493C0.980433 37.7472 0.765058 37.5964 0.586224 37.4062C0.391571 37.2305 0.238073 37.0128 0.136971 36.7689C0.0358681 36.5251 -0.0102774 36.2614 0.001915 35.9972V2.00282C-0.0102774 1.73855 0.0358681 1.47485 0.136971 1.23104C0.238073 0.987234 0.391571 0.769492 0.586224 0.593762C0.765122 0.40368 0.98051 0.25292 1.21906 0.150806C1.45761 0.0486923 1.71424 -0.00260051 1.97308 0.000101457H18.7016V11.505C18.6844 11.7809 18.7279 12.0573 18.829 12.314C18.93 12.5708 19.0861 12.8014 19.2859 12.9892C19.4651 13.1793 19.6808 13.3301 19.9197 13.4322C20.1585 13.5343 20.4154 13.5856 20.6745 13.5828ZM24.0361 18.3285V16.9928C24.0362 16.8954 24.0167 16.799 23.9789 16.7096C23.9411 16.6201 23.8857 16.5394 23.8161 16.4725C23.7614 16.4073 23.6945 16.354 23.6192 16.3156C23.544 16.2772 23.4619 16.2545 23.3778 16.2489H8.62928C8.54526 16.2546 8.46322 16.2774 8.38796 16.3157C8.3127 16.3541 8.24576 16.4074 8.19106 16.4725C8.12145 16.5394 8.06604 16.6201 8.02821 16.7096C7.99038 16.799 7.97093 16.8954 7.97106 16.9928V18.3285C7.97106 18.5777 8.04439 18.7261 8.19106 18.7738C8.24576 18.8388 8.3127 18.8921 8.38796 18.9305C8.46322 18.9689 8.54526 18.9916 8.62928 18.9973H23.3778C23.4619 18.9916 23.5439 18.9689 23.6192 18.9305C23.6944 18.8921 23.7614 18.8388 23.8161 18.7738C23.9621 18.7255 24.0343 18.5771 24.0343 18.3285H24.0361ZM24.0361 23.7466V22.4109C24.0362 22.3135 24.0167 22.2171 23.9789 22.1276C23.9411 22.0382 23.8857 21.9575 23.8161 21.8905C23.7563 21.8375 23.6868 21.7971 23.6116 21.7716C23.5364 21.7461 23.4569 21.7361 23.3778 21.7421H8.62928C8.55019 21.7359 8.47067 21.7458 8.39541 21.7713C8.32015 21.7968 8.25067 21.8373 8.19106 21.8905C8.12145 21.9575 8.06604 22.0382 8.02821 22.1276C7.99038 22.2171 7.97093 22.3135 7.97106 22.4109V23.7466C7.97093 23.844 7.99038 23.9404 8.02821 24.0299C8.06604 24.1193 8.12145 24.2 8.19106 24.267C8.32519 24.3473 8.47454 24.3979 8.62928 24.4154H23.3778C23.5325 24.3976 23.6818 24.347 23.8161 24.267C23.8853 24.1999 23.9404 24.1191 23.978 24.0296C24.0155 23.9402 24.0347 23.8439 24.0343 23.7466H24.0361ZM24.0361 29.1647V27.8289C24.0362 27.7316 24.0167 27.6352 23.9789 27.5457C23.9411 27.4562 23.8857 27.3755 23.8161 27.3086C23.6816 27.2289 23.5324 27.1784 23.3778 27.1602H8.62928C8.47461 27.178 8.32532 27.2286 8.19106 27.3086C8.12145 27.3755 8.06604 27.4562 8.02821 27.5457C7.99038 27.6352 7.97093 27.7316 7.97106 27.8289V29.1647C7.97093 29.2621 7.99038 29.3584 8.02821 29.4479C8.06604 29.5374 8.12145 29.6181 8.19106 29.685C8.32519 29.7654 8.47454 29.8159 8.62928 29.8334H23.3778C23.5325 29.8157 23.6818 29.7651 23.8161 29.685C23.8853 29.6179 23.9404 29.5372 23.978 29.4477C24.0155 29.3582 24.0347 29.2619 24.0343 29.1647H24.0361ZM30.6113 10.0888C30.8187 10.3256 31.0138 10.5733 31.1956 10.8309H21.3398V0.81728C21.593 1.00248 21.8368 1.20062 22.0702 1.41094L30.6166 10.0959L30.6113 10.0888Z" fill="#F56E28"/>
</svg>
