<svg width="20" height="20" viewBox="0 0 20 20" fill="none" xmlns="http://www.w3.org/2000/svg">
<path d="M17.8382 0H15.0391C14.7155 0 14.4531 0.262344 14.4531 0.585938C14.4531 0.909531 14.7155 1.17188 15.0391 1.17188H17.8382C18.3841 1.17188 18.8281 1.61594 18.8281 2.16172V4.96094C18.8281 5.28453 19.0905 5.54688 19.4141 5.54688C19.7377 5.54688 20 5.28453 20 4.96094V2.16172C20 0.969766 19.0302 0 17.8382 0Z" fill="#F56E28"/>
<path d="M0.585938 5.54688C0.909531 5.54688 1.17188 5.28453 1.17188 4.96094V2.16172C1.17188 1.61594 1.61594 1.17188 2.16176 1.17188H4.96094C5.28453 1.17188 5.54688 0.909531 5.54688 0.585938C5.54688 0.262344 5.28453 0 4.96094 0H2.16176C0.969766 0 0 0.969766 0 2.16172V4.96094C0 5.28453 0.262344 5.54688 0.585938 5.54688V5.54688Z" fill="#F56E28"/>
<path d="M4.96094 18.8281H2.16176C1.61594 18.8281 1.17188 18.3841 1.17188 17.8383V15.0391C1.17188 14.7155 0.909531 14.4531 0.585938 14.4531C0.262344 14.4531 0 14.7155 0 15.0391V17.8383C0 19.0302 0.969766 20 2.16176 20H4.96094C5.28453 20 5.54688 19.7377 5.54688 19.4141C5.54688 19.0905 5.28453 18.8281 4.96094 18.8281Z" fill="#F56E28"/>
<path d="M19.4141 14.4531C19.0905 14.4531 18.8281 14.7155 18.8281 15.0391V17.8383C18.8281 18.3841 18.3841 18.8281 17.8382 18.8281H15.0391C14.7155 18.8281 14.4531 19.0905 14.4531 19.4141C14.4531 19.7377 14.7155 20 15.0391 20H17.8382C19.0302 20 20 19.0302 20 17.8383V15.0391C20 14.7155 19.7377 14.4531 19.4141 14.4531Z" fill="#F56E28"/>
<path d="M17.4609 16.875V10.625C17.4609 10.3014 17.1986 10.0391 16.875 10.0391H10.625C10.3014 10.0391 10.0391 10.3014 10.0391 10.625V16.875C10.0391 17.1986 10.3014 17.4609 10.625 17.4609H16.875C17.1986 17.4609 17.4609 17.1986 17.4609 16.875ZM16.2891 16.2891H11.2109V11.2109H16.2891V16.2891Z" fill="#F56E28"/>
<path d="M12.1875 8.71094H16.5625C16.8861 8.71094 17.1484 8.44859 17.1484 8.125V3.75C17.1484 3.42641 16.8861 3.16406 16.5625 3.16406H12.1875C11.8639 3.16406 11.6016 3.42641 11.6016 3.75V8.125C11.6016 8.44859 11.8639 8.71094 12.1875 8.71094ZM12.7734 4.33594H15.9766V7.53906H12.7734V4.33594Z" fill="#F56E28"/>
<path d="M8.75 2.53906H3.125C2.80141 2.53906 2.53906 2.80141 2.53906 3.125V8.75C2.53906 9.07359 2.80141 9.33594 3.125 9.33594H8.75C9.07359 9.33594 9.33594 9.07359 9.33594 8.75V3.125C9.33594 2.80141 9.07359 2.53906 8.75 2.53906ZM8.16406 8.16406H3.71094V3.71094H8.16406V8.16406Z" fill="#F56E28"/>
<path d="M8.125 16.2891H3.71094V11.25C3.71094 10.9264 3.44859 10.6641 3.125 10.6641C2.80141 10.6641 2.53906 10.9264 2.53906 11.25V16.875C2.53906 17.1986 2.80141 17.4609 3.125 17.4609H8.125C8.44859 17.4609 8.71094 17.1986 8.71094 16.875C8.71094 16.5514 8.44859 16.2891 8.125 16.2891Z" fill="#F56E28"/>
<path d="M6.21094 14.375V11.25C6.21094 10.9264 5.94859 10.6641 5.625 10.6641C5.30141 10.6641 5.03906 10.9264 5.03906 11.25V14.375C5.03906 14.6986 5.30141 14.9609 5.625 14.9609C5.94859 14.9609 6.21094 14.6986 6.21094 14.375Z" fill="#F56E28"/>
<path d="M8.125 10.6641C7.80141 10.6641 7.53906 10.9264 7.53906 11.25V14.375C7.53906 14.6986 7.80141 14.9609 8.125 14.9609C8.44859 14.9609 8.71094 14.6986 8.71094 14.375V11.25C8.71094 10.9264 8.44859 10.6641 8.125 10.6641Z" fill="#F56E28"/>
<path d="M13.125 14.3359H14.375C14.6986 14.3359 14.9609 14.0736 14.9609 13.75C14.9609 13.4264 14.6986 13.1641 14.375 13.1641H13.125C12.8014 13.1641 12.5391 13.4264 12.5391 13.75C12.5391 14.0736 12.8014 14.3359 13.125 14.3359Z" fill="#F56E28"/>
<path d="M5.9375 6.83594C6.26109 6.83594 6.52344 6.57359 6.52344 6.25V5.625C6.52344 5.30141 6.26109 5.03906 5.9375 5.03906C5.61391 5.03906 5.35156 5.30141 5.35156 5.625V6.25C5.35156 6.57359 5.61391 6.83594 5.9375 6.83594Z" fill="#F56E28"/>
</svg>
