<svg width="39" height="39" viewBox="0 0 39 39" fill="none" xmlns="http://www.w3.org/2000/svg">
<path d="M37.0501 7.79967H33.1585V25.3506H7.79967V29.2504C7.80141 29.767 8.00741 30.262 8.37271 30.6273C8.73801 30.9926 9.23297 31.1986 9.74959 31.2003H31.1954L38.9951 39V9.74959C38.9933 9.23382 38.788 8.73961 38.4238 8.37444C38.0595 8.00928 37.5658 7.80271 37.0501 7.79967ZM29.2504 19.4992V1.94992C29.2487 1.4333 29.0427 0.938343 28.6774 0.573039C28.3121 0.207735 27.8171 0.00173946 27.3005 0H1.94992C1.4333 0.00173946 0.938343 0.207735 0.573039 0.573039C0.207735 0.938343 0.00173946 1.4333 0 1.94992V29.2504L7.79967 21.4458H27.3005C27.8163 21.4441 28.3105 21.2387 28.6756 20.8745C29.0408 20.5103 29.2474 20.0166 29.2504 19.5008V19.4992Z" fill="#F56E28"/>
</svg>
