<svg width="26" height="26" viewBox="0 0 26 26" fill="none" xmlns="http://www.w3.org/2000/svg">
<path d="M4.33333 0H0V4.33333C1.14927 4.33333 2.25147 3.87679 3.06413 3.06413C3.87679 2.25147 4.33333 1.14927 4.33333 0ZM15.8889 0H13C13 3.44781 11.6304 6.75442 9.19239 9.19239C6.75442 11.6304 3.44781 13 0 13V15.8889C4.21399 15.8889 8.2554 14.2149 11.2351 11.2351C14.2149 8.2554 15.8889 4.21399 15.8889 0ZM10.1111 0H7.22222C7.22222 1.91545 6.46131 3.75245 5.10688 5.10688C3.75245 6.46131 1.91545 7.22222 0 7.22222V10.1111C2.68163 10.1111 5.25343 9.04584 7.14964 7.14964C9.04584 5.25343 10.1111 2.68163 10.1111 0ZM10.1111 26H13C13 22.5522 14.3696 19.2456 16.8076 16.8076C19.2456 14.3696 22.5522 13 26 13V10.1111C21.7868 10.1138 17.747 11.7887 14.7678 14.7678C11.7887 17.747 10.1138 21.7868 10.1111 26ZM21.6667 26H26V21.6667C24.8507 21.6667 23.7485 22.1232 22.9359 22.9359C22.1232 23.7485 21.6667 24.8507 21.6667 26ZM15.8889 26H18.7778C18.7778 24.0845 19.5387 22.2475 20.8931 20.8931C22.2475 19.5387 24.0845 18.7778 26 18.7778V15.8889C23.3184 15.8889 20.7466 16.9542 18.8504 18.8504C16.9542 20.7466 15.8889 23.3184 15.8889 26Z" fill="#F56E28"/>
</svg>
