<svg width="24" height="31" viewBox="0 0 24 31" fill="none" xmlns="http://www.w3.org/2000/svg">
<path d="M3.00054 10.3315H4.50081V7.38041C4.50081 5.42301 5.29105 3.54577 6.69769 2.16167C8.10433 0.777578 10.0121 0 12.0014 0C13.9907 0 15.8985 0.777578 17.3052 2.16167C18.7118 3.54577 19.5021 5.42301 19.5021 7.38041H16.6507C16.6507 6.16674 16.1607 5.00278 15.2885 4.14459C14.4164 3.28639 13.2334 2.80426 12 2.80426C10.7666 2.80426 9.58364 3.28639 8.71147 4.14459C7.83929 5.00278 7.34931 6.16674 7.34931 7.38041V10.3329H20.9995C21.7943 10.3358 22.5558 10.6479 23.1178 11.2009C23.6799 11.7539 23.997 12.5032 24 13.2853V28.0447C23.9977 28.8271 23.6812 29.5769 23.1193 30.1305C22.5575 30.6841 21.796 30.9967 21.0009 31H3.00054C2.20518 30.997 1.44331 30.6846 0.881168 30.131C0.319031 29.5773 0.00226671 28.8273 0 28.0447V13.2839C0.00302232 12.5018 0.32012 11.7525 0.882176 11.1995C1.44423 10.6464 2.20568 10.3344 3.00054 10.3315ZM12.0007 23.7628C12.5942 23.7628 13.1743 23.5897 13.6677 23.2653C14.1612 22.9408 14.5457 22.4797 14.7729 21.9402C15 21.4007 15.0594 20.8071 14.9436 20.2344C14.8278 19.6617 14.5421 19.1356 14.1224 18.7227C13.7028 18.3098 13.1681 18.0286 12.5861 17.9147C12.004 17.8007 11.4007 17.8592 10.8525 18.0827C10.3042 18.3061 9.83556 18.6846 9.50586 19.1701C9.17616 19.6556 9.00018 20.2264 9.00018 20.8104C9.00282 21.5928 9.31975 22.3424 9.88185 22.8957C10.4439 23.4491 11.2056 23.7613 12.0007 23.7642V23.7628Z" fill="#F56E28"/>
</svg>
