<svg width="41" height="38" viewBox="0 0 41 38" fill="none" xmlns="http://www.w3.org/2000/svg">
<path d="M20.5069 16.3009C19.7058 16.3078 18.9246 16.5527 18.2618 17.0046C17.599 17.4566 17.0842 18.0955 16.7825 18.8407C16.4807 19.586 16.4054 20.4043 16.566 21.1924C16.7266 21.9806 17.116 22.7034 17.685 23.2697C18.2541 23.836 18.9773 24.2205 19.7637 24.3748C20.55 24.529 21.3642 24.446 22.1037 24.1364C22.8431 23.8267 23.4747 23.3041 23.9189 22.6346C24.3631 21.965 24.6 21.1785 24.5997 20.374C24.5905 19.2902 24.1552 18.254 23.3886 17.4911C22.622 16.7282 21.5862 16.3004 20.5069 16.3009ZM32.8059 20.3757C32.8235 18.2033 32.2703 16.0647 31.2019 14.1757C30.1336 12.2866 28.5879 10.7139 26.7209 9.61617C24.8539 8.51848 22.7316 7.93466 20.5681 7.92362C18.4047 7.91258 16.2766 8.4747 14.3985 9.55327C12.5205 10.6318 10.959 12.1887 9.8716 14.0668C8.78417 15.9449 8.20929 18.0777 8.20494 20.2501C8.2006 22.4226 8.76695 24.5577 9.84686 26.4401C10.9268 28.3226 12.482 29.8857 14.3557 30.9719L16.4055 27.4056C15.1589 26.7076 14.1208 25.6876 13.3987 24.4512C12.6767 23.2149 12.297 21.8072 12.299 20.374C12.3303 18.2109 13.208 16.1471 14.7424 14.6286C16.2769 13.1101 18.3447 12.2588 20.4991 12.2588C22.6535 12.2588 24.7214 13.1101 26.2558 14.6286C27.7903 16.1471 28.668 18.2109 28.6993 20.374C28.7017 21.8062 28.3229 23.2131 27.6021 24.449C26.8813 25.685 25.8448 26.7051 24.5997 27.4038L26.6495 30.9701C28.5104 29.9011 30.0583 28.3591 31.1377 26.4992C32.2172 24.6392 32.7901 22.5267 32.799 20.374L32.8059 20.3757ZM20.5069 4.77593e-05C15.1021 -0.0116453 9.91208 2.12423 6.07 5.94139C2.22792 9.75854 0.0457915 14.947 0 20.374C0.0060905 23.959 0.957647 27.4785 2.75789 30.5745C4.55813 33.6705 7.14284 36.2325 10.2491 38L12.299 34.4337C9.81691 33.0267 7.75052 30.9843 6.31023 28.5146C4.86994 26.0449 4.10719 23.236 4.09965 20.374C4.16231 16.0478 5.91776 11.9202 8.98661 8.88319C12.0555 5.84616 16.1912 4.14367 20.5 4.14367C24.8088 4.14367 28.9445 5.84616 32.0134 8.88319C35.0822 11.9202 36.8377 16.0478 36.9003 20.374C36.9049 23.2386 36.147 26.0525 34.7052 28.5244C33.2633 30.9963 31.1898 33.0364 28.6993 34.4337L30.7491 38C33.8557 36.2327 36.4408 33.6708 38.2414 30.5748C40.0419 27.4788 40.9937 23.9592 41 20.374C40.9542 14.9494 38.774 9.76307 34.9349 5.9463C31.0958 2.12954 25.9094 -0.00796235 20.5069 4.77593e-05Z" fill="#F56E28"/>
</svg>
